<svg width="126" height="113" viewBox="0 0 126 113" fill="none" xmlns="http://www.w3.org/2000/svg">
<path fill-rule="evenodd" clip-rule="evenodd" d="M103.841 76.2589L104.298 75.1484C106.834 68.9963 108.234 62.2572 108.234 55.186C108.234 26.1341 84.5854 2.58286 55.4136 2.58286C26.2419 2.58286 2.59351 26.1341 2.59351 55.186C2.59351 84.238 26.2419 107.789 55.4136 107.789C65.896 107.789 75.6578 104.751 83.8691 99.5114L84.8467 98.8876L120.935 108.912L103.841 76.2589ZM126 113L85.2683 101.686C76.6519 107.184 66.4066 110.372 55.4136 110.372C24.8095 110.372 0 85.6645 0 55.186C0 24.7076 24.8095 0 55.4136 0C86.0177 0 110.827 24.7076 110.827 55.186C110.827 62.5994 109.359 69.6713 106.698 76.1293L126 113Z" fill="#161516"/>
</svg>
