<svg xmlns="http://www.w3.org/2000/svg" height="24" viewBox="0 -960 960 960" width="24"><path d="M479.435-130.043q-19.087 0-37.827-6.978-18.739-6.978-33.696-21.37l-70.13-64.13q-104.87-95.305-190.935-192.783Q60.782-512.782 60.782-634q0-102.479 68.087-171.131 68.087-68.653 170.566-68.653 51.869 0 98.304 19.957 46.435 19.956 81.696 56.695 35.261-36.739 81.695-56.695 46.435-19.957 98.305-19.957 102.478 0 171.414 68.653Q899.784-736.479 899.784-634q0 121.218-86.414 219.196-86.413 97.978-193.282 193.848l-68.565 63.13q-14.957 14.392-33.979 21.088-19.022 6.695-38.109 6.695Z"/></svg>