<svg xmlns="http://www.w3.org/2000/svg" width="128" height="128" viewBox="0 0 33.867 33.867" id="messenger"><path d="M16.933 1.058A15.875 15.875 0 0 0 1.058 16.933a15.875 15.875 0 0 0 3.268 9.647c-.649 1.781-.889 3.87-.238 4.52.703.703 3.082.369 4.94-.4a15.875 15.875 0 0 0 7.905 2.108 15.875 15.875 0 0 0 15.875-15.875A15.875 15.875 0 0 0 16.933 1.058zm-4.293 10.95c.388.01.78.115 1.14.324l6.907 3.987 2.946-3.182c.439-.503 1.02-.545 1.44-.303.418.241.673.766.457 1.398l-1.876 5.875c-.05.156-.254.505-.278.546a2.403 2.403 0 0 1-3.29.881l-6.907-3.987-2.946 3.183c-.877 1.005-2.328.167-1.897-1.095l1.876-5.876c.053-.155.255-.505.279-.546a2.403 2.403 0 0 1 2.149-1.205z" paint-order="fill markers stroke"></path></svg>